REM DIRINDEX 1\2\4\18,1\2\4\19,1\2\5\20,1\2\5\21,1\2\6\22,1\2\7\23,1\2\8\24,1\2\8\25,1\2\9\26,1\2\10\27,1\3\11\28,1\3\11\29,1\3\11\30,1\3\11\31,1\3\12\32,1\3\12\33,1\3\12\34,1\3\12\35,1\3\13\36,1\3\13\37,1\3\14\38,1\3\14\39,1\3\15\40,1\3\15\41,1\3\15\42,1\3\16\43,1\3\16\44,1\3\17\45,1\3\17\46
REM DIRNAME cjc024,folder01,folder02,folder03,folder04,folder05,folder06,folder07,folder08,folder09,folder10,folder11,folder12,folder13,folder14,folder15,folder16,folder17,folder18,folder19,folder20,folder21,folder22,folder23,folder24,folder25,folder26,folder27,folder28,folder29,folder30,folder31,folder32,folder33,folder34,folder35,folder36,folder37,folder38,folder39,folder40,folder41,folder42,folder43,folder44,folder45
TITLE ""
FILE "11.mp3" MP3
  TRACK 01 AUDIO
    TITLE "0:"
    INDEX 01 00:00:00
  TRACK 02 AUDIO
    TITLE "23:cjc024_1727"
    INDEX 01 00:00:13
  TRACK 03 AUDIO
    TITLE "0:"
    INDEX 01 00:01:22
  TRACK 04 AUDIO
    TITLE "23:cjc024_1728"
    INDEX 01 00:01:73
  TRACK 05 AUDIO
    TITLE "0:"
    INDEX 01 00:03:15
  TRACK 06 AUDIO
    TITLE "23:cjc024_1729"
    INDEX 01 00:03:64
  TRACK 07 AUDIO
    TITLE "0:"
    INDEX 01 00:05:03
  TRACK 08 AUDIO
    TITLE "23:cjc024_1730"
    INDEX 01 00:05:54
  TRACK 09 AUDIO
    TITLE "0:"
    INDEX 01 00:07:02
  TRACK 10 AUDIO
    TITLE "23:cjc024_1731"
    INDEX 01 00:07:51
  TRACK 11 AUDIO
    TITLE "0:"
    INDEX 01 00:09:16
  TRACK 12 AUDIO
    TITLE "23:cjc024_1732"
    INDEX 01 00:09:65
  TRACK 13 AUDIO
    TITLE "0:"
    INDEX 01 00:10:55
  TRACK 14 AUDIO
    TITLE "23:cjc024_1733"
    INDEX 01 00:11:31
  TRACK 15 AUDIO
    TITLE "0:"
    INDEX 01 00:12:48
  TRACK 16 AUDIO
    TITLE "23:cjc024_1734"
    INDEX 01 00:13:24
  TRACK 17 AUDIO
    TITLE "0:"
    INDEX 01 00:14:54
  TRACK 18 AUDIO
    TITLE "23:cjc024_1735"
    INDEX 01 00:15:34
  TRACK 19 AUDIO
    TITLE "0:"
    INDEX 01 00:16:65
  TRACK 20 AUDIO
    TITLE "23:cjc024_1736"
    INDEX 01 00:17:37
  TRACK 21 AUDIO
    TITLE "0:"
    INDEX 01 00:18:68
  TRACK 22 AUDIO
    TITLE "23:cjc024_1737"
    INDEX 01 00:19:40
  TRACK 23 AUDIO
    TITLE "0:"
    INDEX 01 00:21:02
  TRACK 24 AUDIO
    TITLE "23:cjc024_1738"
    INDEX 01 00:21:57
  TRACK 25 AUDIO
    TITLE "0:"
    INDEX 01 00:23:03
  TRACK 26 AUDIO
    TITLE "23:cjc024_1739"
    INDEX 01 00:23:51
  TRACK 27 AUDIO
    TITLE "0:"
    INDEX 01 00:24:71
  TRACK 28 AUDIO
    TITLE "23:cjc024_1740"
    INDEX 01 00:25:46
  TRACK 29 AUDIO
    TITLE "0:"
    INDEX 01 00:26:46
  TRACK 30 AUDIO
    TITLE "23:cjc024_1741"
    INDEX 01 00:27:20
  TRACK 31 AUDIO
    TITLE "0:"
    INDEX 01 00:28:55
  TRACK 32 AUDIO
    TITLE "23:cjc024_1742"
    INDEX 01 00:29:33
  TRACK 33 AUDIO
    TITLE "0:"
    INDEX 01 00:30:38
  TRACK 34 AUDIO
    TITLE "23:cjc024_1743"
    INDEX 01 00:31:14
  TRACK 35 AUDIO
    TITLE "0:"
    INDEX 01 00:32:29
  TRACK 36 AUDIO
    TITLE "23:cjc024_1744"
    INDEX 01 00:33:07
  TRACK 37 AUDIO
    TITLE "0:"
    INDEX 01 00:34:20
  TRACK 38 AUDIO
    TITLE "23:cjc024_1745"
    INDEX 01 00:34:71
  TRACK 39 AUDIO
    TITLE "0:"
    INDEX 01 00:36:13
  TRACK 40 AUDIO
    TITLE "23:cjc024_1746"
    INDEX 01 00:36:64
  TRACK 41 AUDIO
    TITLE "0:"
    INDEX 01 00:38:10
  TRACK 42 AUDIO
    TITLE "23:cjc024_1747"
    INDEX 01 00:38:61
  TRACK 43 AUDIO
    TITLE "0:"
    INDEX 01 00:39:72
  TRACK 44 AUDIO
    TITLE "23:cjc024_1748"
    INDEX 01 00:40:50
  TRACK 45 AUDIO
    TITLE "0:"
    INDEX 01 00:41:57
  TRACK 46 AUDIO
    TITLE "23:cjc024_1749"
    INDEX 01 00:42:33
  TRACK 47 AUDIO
    TITLE "0:"
    INDEX 01 00:43:50
  TRACK 48 AUDIO
    TITLE "23:cjc024_1750"
    INDEX 01 00:44:28
  TRACK 49 AUDIO
    TITLE "0:"
    INDEX 01 00:45:37
  TRACK 50 AUDIO
    TITLE "23:cjc024_1751"
    INDEX 01 00:46:13
  TRACK 51 AUDIO
    TITLE "0:"
    INDEX 01 00:47:38
  TRACK 52 AUDIO
    TITLE "23:cjc024_1752"
    INDEX 01 00:48:14
  TRACK 53 AUDIO
    TITLE "0:"
    INDEX 01 00:49:47
  TRACK 54 AUDIO
    TITLE "23:cjc024_1753"
    INDEX 01 00:50:21
  TRACK 55 AUDIO
    TITLE "0:"
    INDEX 01 00:51:36
  TRACK 56 AUDIO
    TITLE "23:cjc024_1754"
    INDEX 01 00:52:10
  TRACK 57 AUDIO
    TITLE "0:"
    INDEX 01 00:53:35
  TRACK 58 AUDIO
    TITLE "23:cjc024_1755"
    INDEX 01 00:54:09
  TRACK 59 AUDIO
    TITLE "0:"
    INDEX 01 00:55:46
  TRACK 60 AUDIO
    TITLE "23:cjc024_1756"
    INDEX 01 00:56:24
  TRACK 61 AUDIO
    TITLE "0:"
    INDEX 01 00:57:74
  TRACK 62 AUDIO
    TITLE "23:cjc024_1757"
    INDEX 01 00:58:48
  TRACK 63 AUDIO
    TITLE "0:"
    INDEX 01 01:00:19
  TRACK 64 AUDIO
    TITLE "23:cjc024_1758"
    INDEX 01 01:00:70
  TRACK 65 AUDIO
    TITLE "0:"
    INDEX 01 01:02:12
  TRACK 66 AUDIO
    TITLE "23:cjc024_1759"
    INDEX 01 01:02:63
  TRACK 67 AUDIO
    TITLE "0:"
    INDEX 01 01:03:71
  TRACK 68 AUDIO
    TITLE "23:cjc024_1760"
    INDEX 01 01:04:47
  TRACK 69 AUDIO
    TITLE "0:"
    INDEX 01 01:05:73
  TRACK 70 AUDIO
    TITLE "23:cjc024_1761"
    INDEX 01 01:06:47
  TRACK 71 AUDIO
    TITLE "0:"
    INDEX 01 01:07:63
  TRACK 72 AUDIO
    TITLE "23:cjc024_1762"
    INDEX 01 01:08:38
  TRACK 73 AUDIO
    TITLE "0:"
    INDEX 01 01:09:57
  TRACK 74 AUDIO
    TITLE "23:cjc024_1763"
    INDEX 01 01:10:30
  TRACK 75 AUDIO
    TITLE "0:"
    INDEX 01 01:11:60
  TRACK 76 AUDIO
    TITLE "23:cjc024_1764"
    INDEX 01 01:12:36
  TRACK 77 AUDIO
    TITLE "0:"
    INDEX 01 01:13:51
  TRACK 78 AUDIO
    TITLE "23:cjc024_1765"
    INDEX 01 01:14:25
  TRACK 79 AUDIO
    TITLE "0:"
    INDEX 01 01:15:27
  TRACK 80 AUDIO
    TITLE "23:cjc024_1766"
    INDEX 01 01:16:01
  TRACK 81 AUDIO
    TITLE "0:"
    INDEX 01 01:17:18
